<svg xmlns="http://www.w3.org/2000/svg" width="1200" height="630" viewBox="0 0 1200 630">
  <rect width="1200" height="630" fill="#0f172a" />
  <circle cx="900" cy="315" r="400" fill="#0891b2" opacity="0.1" />
  <circle cx="1000" cy="150" r="200" fill="#06b6d4" opacity="0.1" />
  
  <g transform="translate(100, 200)">
    <rect width="80" height="80" rx="20" fill="#0891b2" />
    <path d="M45 25a5 5 0 1 1-10 0 5 5 0 0 1 10 0zm0 30a5 5 0 1 1-10 0 5 5 0 0 1 10 0zm-20 0a5 5 0 1 1-10 0 5 5 0 0 1 10 0zm20-30a5 5 0 1 1-10 0 5 5 0 0 1 10 0zM25 55l30-30" stroke="#ffffff" stroke-width="6" stroke-linecap="round" fill="none" />
    <text x="110" y="55" font-family="system-ui, sans-serif" font-size="64" font-weight="bold" fill="#ffffff">Percentage</text>
    <text x="110" y="125" font-family="system-ui, sans-serif" font-size="48" font-weight="500" fill="#94a3b8">Calculator</text>
  </g>
  
  <text x="100" y="500" font-family="system-ui, sans-serif" font-size="32" fill="#38bdf8">Fast, accurate, and completely free</text>
</svg>